{
    "asset":  {
                  "generator":  "Khronos glTF Blender I/O v4.0.44",
                  "version":  "2.0"
              },
    "scene":  0,
    "scenes":  [
                   {
                       "name":  "Scene",
                       "nodes":  [
                                     0
                                 ]
                   }
               ],
    "nodes":  [
                  {
                      "mesh":  0,
                      "name":  "Prop_Crate"
                  }
              ],
    "materials":  [
                      {
                          "doubleSided":  true,
                          "name":  "MI_WoodTrim",
                          "pbrMetallicRoughness":  {
                                                       "baseColorFactor":  [
                                                                               0.53,
                                                                               0.37,
                                                                               0.21,
                                                                               1
                                                                           ],
                                                       "metallicFactor":  0,
                                                       "roughnessFactor":  1
                                                   }
                      }
                  ],
    "meshes":  [
                   {
                       "name":  "Cube.094",
                       "primitives":  [
                                          {
                                              "attributes":  {
                                                                 "POSITION":  0,
                                                                 "NORMAL":  1,
                                                                 "TEXCOORD_0":  2
                                                             },
                                              "indices":  3,
                                              "material":  0
                                          }
                                      ]
                   }
               ],
    "textures":  [],
    "images":  [],
    "accessors":  [
                      {
                          "bufferView":  0,
                          "componentType":  5126,
                          "count":  460,
                          "max":  [
                                      0.5417912006378174,
                                      1.0629422664642334,
                                      0.5417912006378174
                                  ],
                          "min":  [
                                      -0.5417912602424622,
                                      0.003361523151397705,
                                      -0.5417911410331726
                                  ],
                          "type":  "VEC3"
                      },
                      {
                          "bufferView":  1,
                          "componentType":  5126,
                          "count":  460,
                          "type":  "VEC3"
                      },
                      {
                          "bufferView":  2,
                          "componentType":  5126,
                          "count":  460,
                          "type":  "VEC2"
                      },
                      {
                          "bufferView":  3,
                          "componentType":  5123,
                          "count":  690,
                          "type":  "SCALAR"
                      }
                  ],
    "bufferViews":  [
                        {
                            "buffer":  0,
                            "byteLength":  5520,
                            "byteOffset":  0,
                            "target":  34962
                        },
                        {
                            "buffer":  0,
                            "byteLength":  5520,
                            "byteOffset":  5520,
                            "target":  34962
                        },
                        {
                            "buffer":  0,
                            "byteLength":  3680,
                            "byteOffset":  11040,
                            "target":  34962
                        },
                        {
                            "buffer":  0,
                            "byteLength":  1380,
                            "byteOffset":  14720,
                            "target":  34963
                        }
                    ],
    "samplers":  [
                     {
                         "magFilter":  9729,
                         "minFilter":  9987
                     }
                 ],
    "buffers":  [
                    {
                        "byteLength":  16100,
                        "uri":  "env_obstacle_crate_01.bin"
                    }
                ]
}
