{
    "asset":  {
                  "generator":  "Khronos glTF Blender I/O v4.0.44",
                  "version":  "2.0"
              },
    "scene":  0,
    "scenes":  [
                   {
                       "name":  "Scene",
                       "nodes":  [
                                     0
                                 ]
                   }
               ],
    "nodes":  [
                  {
                      "mesh":  0,
                      "name":  "Wall_Arch"
                  }
              ],
    "materials":  [
                      {
                          "doubleSided":  true,
                          "name":  "MI_WoodTrim",
                          "pbrMetallicRoughness":  {
                                                       "baseColorFactor":  [
                                                                               0.45,
                                                                               0.28,
                                                                               0.13,
                                                                               1
                                                                           ],
                                                       "metallicFactor":  0,
                                                       "roughnessFactor":  1
                                                   }
                      }
                  ],
    "meshes":  [
                   {
                       "name":  "Plane.007",
                       "primitives":  [
                                          {
                                              "attributes":  {
                                                                 "POSITION":  0,
                                                                 "NORMAL":  1,
                                                                 "TEXCOORD_0":  2
                                                             },
                                              "indices":  3,
                                              "material":  0
                                          }
                                      ]
                   }
               ],
    "textures":  [],
    "images":  [],
    "accessors":  [
                      {
                          "bufferView":  0,
                          "componentType":  5126,
                          "count":  260,
                          "max":  [
                                      1,
                                      3,
                                      0.06404569000005722
                                  ],
                          "min":  [
                                      -1,
                                      -1.1920928955078125E-07,
                                      -3.7252902984619141E-08
                                  ],
                          "type":  "VEC3"
                      },
                      {
                          "bufferView":  1,
                          "componentType":  5126,
                          "count":  260,
                          "type":  "VEC3"
                      },
                      {
                          "bufferView":  2,
                          "componentType":  5126,
                          "count":  260,
                          "type":  "VEC2"
                      },
                      {
                          "bufferView":  3,
                          "componentType":  5123,
                          "count":  588,
                          "type":  "SCALAR"
                      }
                  ],
    "bufferViews":  [
                        {
                            "buffer":  0,
                            "byteLength":  3120,
                            "byteOffset":  0,
                            "target":  34962
                        },
                        {
                            "buffer":  0,
                            "byteLength":  3120,
                            "byteOffset":  3120,
                            "target":  34962
                        },
                        {
                            "buffer":  0,
                            "byteLength":  2080,
                            "byteOffset":  6240,
                            "target":  34962
                        },
                        {
                            "buffer":  0,
                            "byteLength":  1176,
                            "byteOffset":  8320,
                            "target":  34963
                        }
                    ],
    "samplers":  [
                     {
                         "magFilter":  9729,
                         "minFilter":  9987
                     }
                 ],
    "buffers":  [
                    {
                        "byteLength":  9496,
                        "uri":  "env_prop_archway_01.bin"
                    }
                ]
}
